<svg viewBox="0 0 294 294" version="1.1" xmlns="http://www.w3.org/2000/svg">
    <g stroke="none" stroke-width="1" fill="none" fill-rule="evenodd">
        <path d="M178.148078,4.92662214 C177.43576,3.787373 176.286196,2.99196164 174.969298,2.72606043 C156.365382,-0.892259005 137.238833,-0.892259005 118.634918,2.72606043 C117.318019,2.99196164 116.168455,3.787373 115.456138,4.92662214 C114.718033,6.08993992 114.505426,7.50998989 114.869321,8.83892286 L127.437165,56.273062 C128.082433,58.6879492 130.444599,60.2271963 132.913927,59.8426711 C142.019897,58.4243403 151.290337,58.4243403 160.396307,59.8426711 L161.129827,59.8426711 C163.403168,59.9206076 165.430092,58.4209019 166.019774,56.2237786 L178.734321,8.8383498 C179.098789,7.51056296 178.88561,6.08993992 178.148078,4.92662214 Z" fill="#356A92"/>
        <path d="M118.586207,58.7670319 L105.87166,11.3328928 C105.511776,10.0274554 104.626394,8.92946681 103.4264,8.30081676 C102.240733,7.65898626 100.843033,7.53520466 99.563383,7.95869818 C81.5772294,14.0578071 64.9624154,23.6273852 50.6622027,36.125888 C49.6444429,37.0187201 49.0427268,38.2937852 48.9997471,39.6467868 C48.9132146,40.9522242 49.3533269,42.2381774 50.2220904,43.2163959 L84.9416819,77.9365605 C85.8643133,78.851742 87.1135905,79.3623411 88.4138703,79.3548913 C89.5336353,79.3594758 90.6213088,78.9801081 91.4946567,78.2792521 C98.6206944,72.4815743 106.62753,67.8586756 115.212013,64.5870592 C117.704264,63.8512464 119.186204,61.2953856 118.586207,58.7670319 Z" fill="#CADBEA"/>
        <path d="M78.0465886,85.0757787 L43.326997,50.3561871 C42.3682627,49.4037565 41.0588139,48.8902921 39.7081045,48.9378563 C38.374587,48.9040456 37.0851954,49.4163639 36.1384954,50.3561871 C23.6405657,64.6569729 14.0704145,81.2712138 7.97130556,99.2573674 C7.54781205,100.537017 7.67216671,101.935291 8.31342414,103.120385 C8.94207419,104.319805 10.0394897,105.205188 11.3455002,105.565644 L58.7796393,118.280192 C59.2019867,118.328329 59.6283455,118.328329 60.051266,118.280192 C62.0673014,118.274461 63.8730228,117.031488 64.5990935,115.150695 C67.8861826,106.563347 72.5251271,98.5565114 78.3405699,91.433339 C79.8230837,89.5319161 79.6987291,86.8327897 78.0465886,85.0757787 Z" fill="#CADBEA"/>
        <path d="M59.8552785,160.482266 C59.1309269,155.937877 58.7710434,151.342485 58.7796393,146.74079 C58.730929,142.092676 59.0581479,137.448001 59.7578578,132.852609 C60.142383,130.382708 58.6025629,128.020543 56.1882487,127.375847 L8.80224683,114.661299 C8.69966857,114.633792 8.59594417,114.609151 8.49164672,114.58852 C5.84294979,114.059583 3.26760491,115.778199 2.73866781,118.426896 C-0.912889271,137.027373 -0.912889271,156.160799 2.73866781,174.761276 C3.21029862,177.074731 5.26816765,178.721141 7.62861392,178.673576 C8.05096131,178.721714 8.47732014,178.721714 8.9002406,178.673576 L56.2856694,165.959029 C58.7005566,165.31376 60.2403768,162.951595 59.8552785,160.482266 Z" fill="#CADBEA"/>
        <path d="M78.3399968,202.048241 C72.5761297,194.852289 68.0025144,186.778979 64.794508,178.13547 C63.902822,175.799666 61.3922333,174.513139 58.9750538,175.152678 L11.5409146,187.867225 C10.2354773,188.227109 9.13748866,189.112491 8.50883861,190.312485 C7.86700811,191.498152 7.74322651,192.895853 8.16672003,194.175502 C14.265829,212.161656 23.8359801,228.77647 36.3339099,243.076682 C37.226742,244.094442 38.501807,244.696158 39.8548086,244.739138 C41.1493578,244.721373 42.389466,244.214785 43.326997,243.320807 L78.0471617,208.600643 C79.8121955,206.815551 79.9388424,203.984047 78.3399968,202.048241 Z" fill="#A4B9CD"/>
        <path d="M115.212013,228.943804 C106.624665,225.656715 98.6178291,221.01777 91.4946567,215.202328 C89.5932339,213.719241 86.8941074,213.843595 85.1376695,215.495736 L50.4175048,250.215901 C49.4650742,251.174635 48.9516098,252.484084 48.999174,253.834793 C48.8564814,255.229628 49.3195162,256.618733 50.2708007,257.6491 C64.5715865,270.14703 81.1858274,279.717181 99.171981,285.81629 C99.691176,285.890788 100.217821,285.890788 100.737016,285.81629 C101.539877,285.812278 102.328985,285.61056 103.035571,285.229473 C104.235565,284.600823 105.120374,283.503408 105.480831,282.197397 L118.195379,234.763258 C118.834344,232.346079 117.547817,229.836063 115.212013,228.943804 Z" fill="#A4B9CD"/>
        <path d="M178.734894,284.691367 L166.020347,237.305939 C165.375078,234.891051 163.012912,233.351231 160.543584,233.736329 C151.437614,235.15466 142.167175,235.15466 133.061204,233.736329 C130.591303,233.351804 128.229138,234.891624 127.584442,237.305939 L114.869894,284.691367 C114.520326,286.004828 114.732932,287.404247 115.456711,288.554385 C116.169028,289.693634 117.318592,290.489045 118.635491,290.754946 C137.235968,294.406503 156.369394,294.406503 174.969871,290.754946 C176.286769,290.489045 177.436334,289.693634 178.148651,288.554385 C178.871856,287.404247 179.084463,286.004828 178.734894,284.691367 Z" fill="#A4B9CD"/>
        <path d="M243.382125,250.265184 L208.66196,215.545019 C206.89005,213.765086 204.0574,213.616663 202.108986,215.202901 C194.986386,221.018344 186.979551,225.657288 178.391629,228.944377 C176.055825,229.836063 174.769299,232.346652 175.408837,234.763831 L187.731982,281.904562 C188.091866,283.21 188.977248,284.307988 190.177242,284.936638 C190.883829,285.317725 191.672936,285.519443 192.475797,285.523455 C192.994992,285.597953 193.521637,285.597953 194.040832,285.523455 C212.026986,279.424346 228.6418,269.854195 242.942013,257.356265 C243.959772,256.463433 244.561488,255.188368 244.604468,253.835366 C244.691574,252.529356 244.250888,251.243402 243.382125,250.265184 Z" fill="#718DA7"/>
        <path d="M285.290791,190.507326 C284.662141,189.307332 283.564726,188.422523 282.258715,188.062067 L234.824576,175.347519 C232.407396,174.707981 229.897381,175.994507 229.005122,178.330312 C225.718033,186.91766 221.079088,194.924495 215.263645,202.047668 C213.58056,204.052242 213.774828,207.027012 215.703758,208.796057 L250.423922,243.516222 C251.36088,244.409627 252.600989,244.916214 253.896111,244.934552 C255.249112,244.891573 256.524177,244.289857 257.41701,243.272097 C269.914939,228.971311 279.48509,212.35707 285.584199,194.370917 C286.022593,193.097571 285.916576,191.69987 285.290791,190.507326 Z" fill="#718DA7"/>
        <path d="M290.670133,118.720304 C290.649503,118.616007 290.624861,118.512282 290.597354,118.409704 C289.897071,115.801122 287.214563,114.254998 284.606554,114.955281 L237.221125,127.669828 C234.806238,128.315097 233.266418,130.677263 233.651516,133.146591 C235.085893,142.251415 235.085893,151.524146 233.651516,160.62897 C233.266991,163.098872 234.806811,165.461037 237.221125,166.105733 L284.606554,178.820281 C285.028901,178.868418 285.455833,178.868418 285.878181,178.820281 C288.2392,178.867845 290.296496,177.222008 290.768127,174.90798 C292.59849,165.630664 293.515391,156.196902 293.506795,146.74079 C293.473557,137.330523 292.523992,127.946045 290.670133,118.720304 Z" fill="#718DA7"/>
        <path d="M285.584199,99.5020652 C279.48509,81.5159117 269.914939,64.9010977 257.41701,50.600885 C256.524177,49.5831252 255.249112,48.9814091 253.896111,48.9384294 C252.586089,48.816367 251.286382,49.2610638 250.326502,50.1607726 L215.606337,84.8809373 C213.826404,86.6528479 213.67798,89.485498 215.264218,91.433912 C221.065908,98.5118125 225.704279,106.468218 229.005695,115.004564 C229.731766,116.885357 231.537487,118.12833 233.553522,118.134061 C233.97587,118.182198 234.402802,118.182198 234.825149,118.134061 L282.210578,105.419513 C283.516015,105.05963 284.614004,104.174247 285.242654,102.974254 C285.779041,101.898041 285.901103,100.661945 285.584199,99.5020652 Z" fill="#356A92"/>
        <path d="M243.333415,36.0766046 C229.032629,23.5786749 212.418388,14.0085237 194.432234,7.90941477 C193.152585,7.48592125 191.754311,7.61027591 190.569217,8.25153334 C189.369223,8.88018339 188.484414,9.97759893 188.123957,11.2836094 L175.40941,58.7177485 C174.71715,61.0976789 175.914851,63.6185828 178.196788,64.5859131 C186.784136,67.8730021 194.790972,72.5119467 201.914144,78.3273894 C202.787492,79.0282454 203.875166,79.4081861 204.994931,79.4030286 C206.294637,79.4104784 207.543914,78.9004524 208.467119,77.9846978 L243.187284,43.2645332 C244.139714,42.3057988 244.653179,40.99635 244.605614,39.6456407 C244.678393,38.3344726 244.219943,37.0473733 243.333415,36.0766046 Z" fill="#356A92"/>
    </g>
</svg>